<svg width="44" height="54" viewBox="0 0 44 54" fill="none" xmlns="http://www.w3.org/2000/svg">
<path d="M0.666748 45.6666V40.3332H6.00008V21.6666C6.00008 17.9777 7.11119 14.711 9.33341 11.8666C11.5556 8.97769 14.4445 7.0888 18.0001 6.19992V4.33325C18.0001 3.22214 18.3779 2.28881 19.1334 1.53325C19.9334 0.733251 20.889 0.333252 22.0001 0.333252C23.1112 0.333252 24.0445 0.733251 24.8001 1.53325C25.6001 2.28881 26.0001 3.22214 26.0001 4.33325V6.19992C29.5556 7.0888 32.4445 8.97769 34.6667 11.8666C36.889 14.711 38.0001 17.9777 38.0001 21.6666V40.3332H43.3334V45.6666H0.666748ZM22.0001 53.6666C20.5334 53.6666 19.2667 53.1555 18.2001 52.1332C17.1779 51.0666 16.6667 49.7999 16.6667 48.3332H27.3334C27.3334 49.7999 26.8001 51.0666 25.7334 52.1332C24.7112 53.1555 23.4667 53.6666 22.0001 53.6666ZM11.3334 40.3332H32.6667V21.6666C32.6667 18.7332 31.6223 16.2221 29.5334 14.1333C27.4445 12.0444 24.9334 10.9999 22.0001 10.9999C19.0667 10.9999 16.5556 12.0444 14.4667 14.1333C12.3779 16.2221 11.3334 18.7332 11.3334 21.6666V40.3332Z" fill="#0A2472"/>
</svg>
